<svg width="48" height="48" viewBox="0 0 48 48" fill="none" xmlns="http://www.w3.org/2000/svg">
<path d="M0 24C0 10.7452 10.7452 0 24 0C37.2548 0 48 10.7452 48 24C48 37.2548 37.2548 48 24 48C10.7452 48 0 37.2548 0 24Z" fill="#3A5F56" fill-opacity="0.1"/>
<path d="M17.08 23.2118C18.4 23.2118 19.68 23.7635 20.6 24.67C21.04 25.1034 21.4 25.6158 21.64 26.1675C22.24 25.734 23 25.4581 23.84 25.4581C24.8 25.4581 25.64 25.7734 26.28 26.3251C27.04 24.4729 28.88 23.2118 30.96 23.2118C32.32 23.2118 33.56 23.7241 34.52 24.67C35.48 25.6158 36 26.8374 36 28.1773V29.9901C36 31.0936 35.08 32 33.96 32H14.04C12.92 32 12 31.0936 12 29.9901V28.335C12 26.9557 12.56 25.6158 13.56 24.6305C14.52 23.7241 15.76 23.1724 17.08 23.2118ZM23.84 26.2069C22.2 26.2069 20.88 27.5074 20.88 29.1232V31.2118H26.8V29.1232C26.8 27.5468 25.48 26.2069 23.84 26.2069ZM17.12 23.9606H17.08C16 23.9606 14.96 24.3941 14.16 25.1823C13.28 26.0493 12.8 27.1921 12.8 28.335V29.9901C12.8 30.6601 13.36 31.2118 14.04 31.2118V31.1724H20.12V29.0837C20.12 28.1773 20.48 27.3103 21.04 26.6798C20.84 26.1281 20.52 25.6158 20.08 25.1823C19.28 24.3941 18.24 23.9606 17.12 23.9606ZM30.92 24C29.04 24 27.4 25.1823 26.88 26.9557C27.32 27.5468 27.6 28.2956 27.6 29.1232V31.2118H33.96C34.64 31.2118 35.2 30.6601 35.2 29.9901H35.16V28.1773C35.16 27.0739 34.72 26.0099 33.92 25.2217C33.12 24.4335 32.04 24 30.92 24ZM23.88 19.9803C25.04 19.9803 25.96 20.8867 25.96 22.0296C25.96 23.1724 25.04 24.0788 23.88 24.0788C22.72 24.0788 21.8 23.1724 21.8 22.0296C21.8 20.8867 22.72 19.9803 23.88 19.9803ZM23.88 20.8079C23.16 20.8079 22.6 21.3596 22.6 22.069C22.6 22.7783 23.16 23.33 23.88 23.33C24.6 23.33 25.16 22.7783 25.16 22.069C25.16 21.3596 24.6 20.8079 23.88 20.8079ZM17.04 16C18.6 16 19.88 17.2611 19.88 18.798C19.88 20.335 18.6 21.5961 17.04 21.5961C15.48 21.5961 14.2 20.335 14.2 18.798C14.2 17.2611 15.48 16 17.04 16ZM30.96 16C32.52 16 33.8 17.2611 33.8 18.798C33.8 20.335 32.52 21.5961 30.96 21.5961C29.4 21.5961 28.12 20.335 28.12 18.798C28.12 17.2611 29.4 16 30.96 16ZM17.04 16.7882C15.92 16.7882 15 17.6946 15 18.798C15 19.9015 15.92 20.8079 17.04 20.8079C18.16 20.8079 19.08 19.9015 19.08 18.798C19.08 17.6946 18.16 16.7882 17.04 16.7882ZM30.96 16.7882C29.84 16.7882 28.92 17.6946 28.92 18.798C28.92 19.9015 29.84 20.8079 30.96 20.8079C32.08 20.8079 33 19.9015 33 18.798C33 17.6946 32.08 16.7882 30.96 16.7882Z" fill="#3A5F56"/>
</svg>
